<mxfile host="65bd71144e">
    <diagram id="bpbkTxAe3MsM5qXTKhsR" name="Page-1">
        <mxGraphModel dx="1159" dy="406" grid="1" gridSize="10" guides="1" tooltips="1" connect="1" arrows="1" fold="1" page="1" pageScale="1" pageWidth="1100" pageHeight="850" math="0" shadow="0">
            <root>
                <mxCell id="0"/>
                <mxCell id="1" parent="0"/>
                <mxCell id="154" value="Template Method Design Pattern" style="text;html=1;align=center;verticalAlign=middle;resizable=1;points=[];autosize=1;strokeColor=#C73500;fillColor=#fa6800;fontColor=#000000;fontSize=25;movable=1;rotatable=1;deletable=1;editable=1;connectable=1;container=0;" parent="1" vertex="1">
                    <mxGeometry x="20" y="40" width="390" height="40" as="geometry"/>
                </mxCell>
                <mxCell id="199" value="&lt;div style=&quot;color: rgb(204, 204, 204); background-color: rgb(31, 31, 31); font-family: Consolas, &amp;quot;Courier New&amp;quot;, monospace; line-height: 19px;&quot;&gt;&lt;font style=&quot;font-size: 12px;&quot;&gt;The Template Method Design Pattern is a behavioral design pattern that defines the skeleton of an algorithm in a base class, allowing subclasses to override specific steps of the algorithm without changing its structure.&lt;/font&gt;&lt;/div&gt;" style="shape=note2;boundedLbl=1;whiteSpace=wrap;html=1;size=25;verticalAlign=top;align=left;movable=1;resizable=1;rotatable=1;deletable=1;editable=1;connectable=1;container=0;" parent="1" vertex="1">
                    <mxGeometry x="460" y="40" width="580" height="90" as="geometry"/>
                </mxCell>
                <mxCell id="230" value="" style="group;movable=0;resizable=0;rotatable=0;deletable=0;editable=0;connectable=0;" parent="1" vertex="1" connectable="0">
                    <mxGeometry x="450" y="150" width="370" height="305" as="geometry"/>
                </mxCell>
                <mxCell id="212" value="ConcreteClass1" style="swimlane;fontStyle=1;align=center;verticalAlign=top;childLayout=stackLayout;horizontal=1;startSize=26;horizontalStack=0;resizeParent=1;resizeParentMax=0;resizeLast=0;collapsible=1;marginBottom=0;movable=0;resizable=0;rotatable=0;deletable=0;editable=0;connectable=0;" parent="230" vertex="1">
                    <mxGeometry y="215" width="160" height="90" as="geometry"/>
                </mxCell>
                <mxCell id="214" value="" style="line;strokeWidth=1;fillColor=none;align=left;verticalAlign=middle;spacingTop=-1;spacingLeft=3;spacingRight=3;rotatable=0;labelPosition=right;points=[];portConstraint=eastwest;strokeColor=inherit;movable=0;resizable=0;deletable=0;editable=0;connectable=0;" parent="212" vertex="1">
                    <mxGeometry y="26" width="160" height="8" as="geometry"/>
                </mxCell>
                <mxCell id="215" value="#PrimitiveOperation1():void&#10;#PrimitiveOperation2():void&#10;#HookMethod():void" style="text;strokeColor=none;fillColor=none;align=left;verticalAlign=top;spacingLeft=4;spacingRight=4;overflow=hidden;rotatable=0;points=[[0,0.5],[1,0.5]];portConstraint=eastwest;movable=0;resizable=0;deletable=0;editable=0;connectable=0;" parent="212" vertex="1">
                    <mxGeometry y="34" width="160" height="56" as="geometry"/>
                </mxCell>
                <mxCell id="224" value="ConcreteClass1" style="swimlane;fontStyle=1;align=center;verticalAlign=top;childLayout=stackLayout;horizontal=1;startSize=26;horizontalStack=0;resizeParent=1;resizeParentMax=0;resizeLast=0;collapsible=1;marginBottom=0;movable=0;resizable=0;rotatable=0;deletable=0;editable=0;connectable=0;" parent="230" vertex="1">
                    <mxGeometry x="210" y="215" width="160" height="90" as="geometry"/>
                </mxCell>
                <mxCell id="225" value="" style="line;strokeWidth=1;fillColor=none;align=left;verticalAlign=middle;spacingTop=-1;spacingLeft=3;spacingRight=3;rotatable=0;labelPosition=right;points=[];portConstraint=eastwest;strokeColor=inherit;movable=0;resizable=0;deletable=0;editable=0;connectable=0;" parent="224" vertex="1">
                    <mxGeometry y="26" width="160" height="8" as="geometry"/>
                </mxCell>
                <mxCell id="226" value="#PrimitiveOperation1():void&#10;#PrimitiveOperation2():void&#10;" style="text;strokeColor=none;fillColor=none;align=left;verticalAlign=top;spacingLeft=4;spacingRight=4;overflow=hidden;rotatable=0;points=[[0,0.5],[1,0.5]];portConstraint=eastwest;movable=0;resizable=0;deletable=0;editable=0;connectable=0;" parent="224" vertex="1">
                    <mxGeometry y="34" width="160" height="56" as="geometry"/>
                </mxCell>
                <mxCell id="227" value="" style="group;movable=0;resizable=0;rotatable=0;deletable=0;editable=0;connectable=0;" parent="230" vertex="1" connectable="0">
                    <mxGeometry width="160" height="130" as="geometry"/>
                </mxCell>
                <mxCell id="200" value="&lt;&lt;abstract&gt;&gt;&#10;AbstractClass" style="swimlane;fontStyle=1;align=center;verticalAlign=top;childLayout=stackLayout;horizontal=1;startSize=50;horizontalStack=0;resizeParent=1;resizeParentMax=0;resizeLast=0;collapsible=1;marginBottom=0;container=0;movable=0;resizable=0;rotatable=0;deletable=0;editable=0;connectable=0;" parent="227" vertex="1">
                    <mxGeometry width="160" height="130" as="geometry"/>
                </mxCell>
                <mxCell id="202" value="" style="line;strokeWidth=1;fillColor=none;align=left;verticalAlign=middle;spacingTop=-1;spacingLeft=3;spacingRight=3;rotatable=0;labelPosition=right;points=[];portConstraint=eastwest;strokeColor=inherit;container=0;movable=0;resizable=0;deletable=0;editable=0;connectable=0;" parent="227" vertex="1">
                    <mxGeometry y="50" width="160" height="8" as="geometry"/>
                </mxCell>
                <mxCell id="203" value="+TemplateMethod():void&#10;&#10;#PrimitiveOperation1():void&#10;#PrimitiveOperation2():void&#10;#HookMethod():void" style="text;strokeColor=none;fillColor=none;align=left;verticalAlign=top;spacingLeft=4;spacingRight=4;overflow=hidden;rotatable=0;points=[[0,0.5],[1,0.5]];portConstraint=eastwest;container=0;movable=0;resizable=0;deletable=0;editable=0;connectable=0;" parent="227" vertex="1">
                    <mxGeometry y="50" width="160" height="80" as="geometry"/>
                </mxCell>
                <mxCell id="228" value="&amp;lt;&amp;lt;extend&amp;gt;&amp;gt;" style="html=1;verticalAlign=bottom;labelBackgroundColor=none;endArrow=open;endFill=0;dashed=1;movable=0;resizable=0;rotatable=0;deletable=0;editable=0;connectable=0;" parent="230" edge="1">
                    <mxGeometry width="160" relative="1" as="geometry">
                        <mxPoint x="40" y="210" as="sourcePoint"/>
                        <mxPoint x="40" y="130" as="targetPoint"/>
                    </mxGeometry>
                </mxCell>
                <mxCell id="229" value="&amp;lt;&amp;lt;extend&amp;gt;&amp;gt;" style="html=1;verticalAlign=bottom;labelBackgroundColor=none;endArrow=open;endFill=0;dashed=1;exitX=0.25;exitY=0;exitDx=0;exitDy=0;movable=0;resizable=0;rotatable=0;deletable=0;editable=0;connectable=0;" parent="230" source="224" edge="1">
                    <mxGeometry width="160" relative="1" as="geometry">
                        <mxPoint x="120" y="240" as="sourcePoint"/>
                        <mxPoint x="120" y="130" as="targetPoint"/>
                        <Array as="points">
                            <mxPoint x="250" y="180"/>
                            <mxPoint x="120" y="180"/>
                        </Array>
                    </mxGeometry>
                </mxCell>
                <mxCell id="231" value="Client" style="html=1;movable=0;resizable=0;rotatable=0;deletable=0;editable=0;connectable=0;" parent="1" vertex="1">
                    <mxGeometry x="80" y="200" width="110" height="50" as="geometry"/>
                </mxCell>
                <mxCell id="232" value="Use" style="endArrow=open;endSize=12;dashed=1;html=1;entryX=-0.006;entryY=0.282;entryDx=0;entryDy=0;entryPerimeter=0;movable=0;resizable=0;rotatable=0;deletable=0;editable=0;connectable=0;" parent="1" target="203" edge="1">
                    <mxGeometry width="160" relative="1" as="geometry">
                        <mxPoint x="190" y="220" as="sourcePoint"/>
                        <mxPoint x="350" y="220" as="targetPoint"/>
                    </mxGeometry>
                </mxCell>
            </root>
        </mxGraphModel>
    </diagram>
</mxfile>